<svg id="Layer_1" enable-background="new 0 0 512 512" height="512" viewBox="0 0 512 512" width="512" xmlns="http://www.w3.org/2000/svg"><g><path d="m220.5 215.7 1.1-13.3c.3-3.7 3.6-6.5 7.3-6.2h.1l3.4.4c12.5 1.3 24.8-4.2 32.2-14.4 1.6-2.2 4.6-2.7 6.9-1.2 11.3 7.6 19.4 19.2 22.6 32.4l.6 2.5h.1l.9-13.5c.8-10.9-3-21.6-10.5-29.6-15-16.1-40.3-16.9-56.3-1.9-.6.6-1.3 1.2-1.9 1.9-7.5 7.9-11.3 18.7-10.5 29.6l.9 12.6c1 .3 2.1.5 3.1.7z"/><path d="m251.5 331.9 10.3.1 2.1-6.8-7.1-3.5-7.1 2.8z"/><path d="m282.6 297.2c-1-.2-2-.3-3-.5-1.1 3.6-3.1 6.8-5.8 9.3l-9 8.7 14.6 6.6z"/><path d="m210.8 223.2c-.4.4-.6.9-.8 1.4-.5 2.1.1 4.4 2.1 5.9.7.6 1.6.9 2.5 1.1 2.4.4 4.1 2.5 4.1 4.9 0 20.6 16.6 37.3 37.2 37.3s37.3-16.6 37.3-37.2c0-2.4 1.7-4.5 4.1-5 2.7-.5 4.7-2.8 4.7-5.6 0-.5-.1-.9-.2-1.3s-.2-.7-.5-1l-8.2 4c-2.5 1.2-5.5.1-6.6-2.4-.1-.3-.2-.6-.3-.9l-2.1-8.4c-2.3-9.3-7.5-17.6-14.8-23.8-9.7 10.7-23.9 16.1-38.2 14.6l-1.2 15.2c-.1 1.5-.9 2.8-2.1 3.7-1.7 1.3-2.8 1.6-12.1-.5-1.6-.6-3.3-1.2-4.9-2z"/><path d="m234.5 400.2 7.9-63.1-2-8.4-9.8 4.5c-2.5 1.1-5.5 0-6.6-2.5-.2-.4-.3-.9-.4-1.4l-4-30.2c-5.4 1.3-10.7 2.8-15.9 4.6l-4.6 1.6c-6.8 2.3-12.3 7.2-15.3 13.8-.1.3-.2.6-.3.9-1.1 3-1.6 6.2-1.6 9.5v52c5.4 3.4 11.1 6.3 17 8.7v-33.6c0-2.8 2.2-5 5-5s5 2.2 5 5v37.5c8.4 2.7 16.9 4.8 25.6 6.1z"/><path d="m271 290.3v-9c-9.8 3.1-20.2 3.1-30 0v9.1c.1 3.2 1.5 6.3 3.9 8.5l11.2 10.5 11-10.5c2.4-2.3 3.8-5.4 3.9-8.6z"/><path d="m328.2 319.1c-3-6.5-8.5-11.5-15.3-13.8l-4.6-1.6c-5.2-1.8-10.5-3.3-15.9-4.6l-4 30.2c-.3 2.5-2.4 4.3-5 4.3-.7 0-1.4-.2-2.1-.4l-8.3-3.8-2.4 8.2 6.4 62.7c9.2-1.4 18.2-3.5 26.9-6.5v-37.4c0-2.8 2.2-5 5-5s5 2.2 5 5v33.5c5.5-2.6 10.8-5.4 16-8.5v-51.9c.1-3.2-.4-6.5-1.5-9.5 0-.4 0-.7-.2-.9z"/><path d="m232.6 321.3 14.6-6.6-9-8.7c-2.7-2.6-4.6-5.8-5.7-9.3-1 .1-2 .3-3 .5z"/><path d="m261 434.7v-33c2-.1 4-.2 6-.3l-6-59.4-9.1-.1-7.7 59.4c2.2.2 4.5.3 6.7.4v33c-19.6 2.8-33.2 20.9-30.5 40.5 2.6 17.7 17.7 30.8 35.6 30.8 19.8 0 35.8-16 35.8-35.8 0-17.9-13.1-33-30.8-35.5z"/><path d="m434.8 261c2.4 17.7 17.6 30.9 35.4 30.7 19.8-.1 35.7-16.2 35.6-36-.1-19.6-16-35.5-35.6-35.6-17.8.2-32.9 13.3-35.5 30.9h-33.4c-1.3-36.5-16.1-69.7-39.5-94.6l64.9-64.9c15.6 12.1 38.1 9.3 50.2-6.3s9.3-38.1-6.3-50.2-38.1-9.3-50.2 6.3c-9.8 12.6-10.1 30.1-.7 43l-65 65c-25-23.2-58.2-37.7-94.7-38.6v-33.3c19.7-2.1 34-19.8 31.9-39.5s-19.8-34-39.5-31.9-34 19.8-31.9 39.5c1.7 15.9 13.7 28.8 29.5 31.6v33.8c-36.2 1.5-69 16.3-93.7 39.6l-73.2-73.2c12.3-15.5 9.6-38-5.9-50.3s-38-9.6-50.3 5.9-9.6 38 5.9 50.3c6.3 5 14.1 7.7 22.2 7.7 7.5 0 14.8-2.3 20.8-6.7l73.4 73.4c-23.1 25-37.5 58.1-38.6 94.5h-33.1c-1.9-19.8-19.6-34.3-39.4-32.3-19.8 1.9-34.3 19.6-32.3 39.4 1.9 19.8 19.6 34.3 39.4 32.3 16-1.6 29-13.6 31.9-29.4h33.7c1.4 35.2 15.6 68.4 39.3 93.7l-73 73c-15.6-12.2-38.1-9.4-50.3 6.2s-9.4 38.1 6.2 50.3c14.3 11.1 34.6 9.9 47.3-2.9 12.5-12.5 14-32.1 3.6-46.4l73.1-73.1c4.6 4.3 9.6 8.4 14.8 12.1v-45.4c-.1-4.4.6-8.7 2.1-12.8l.2-.5c.5-1.5 1.2-3 1.9-4.4 4.4-7.5 11.3-13.1 19.5-15.9l4.5-1.6c10-3.4 20.3-5.9 30.8-7.5v-10c-12-7.7-21.2-21.1-22.3-36.6-5.4-2.6-8.9-8.2-8.8-14.2 0-1.3.2-2.5.5-3.8.9-3.7 3.4-6.9 6.8-8.6l-.7-10.5c-1-13.7 3.8-27.1 13.2-37.1 18.8-20.1 50.4-21.2 70.5-2.4.8.8 1.6 1.5 2.4 2.4 9.4 10 14.2 23.4 13.2 37.1l-.7 10.5c3.4 1.7 5.9 4.8 6.8 8.6 1.9 7.2-1.6 14.8-8.4 17.9-1.2 15.5-10.3 28.9-22.3 36.6v10.1c10.5 1.6 20.7 4.1 30.7 7.5l4.4 1.6c9.4 3.2 17.1 10.1 21.1 19.2.2.4.3.8.4 1.2 1.6 4.2 2.3 8.7 2.3 13.3v45.4c5.5-3.9 10.7-8.2 15.5-12.7l73 73c-12 15.7-9.1 38.2 6.6 50.2s38.2 9.1 50.2-6.6 9.1-38.2-6.6-50.2c-6.3-4.8-13.9-7.4-21.8-7.4-7.7 0-15.1 2.4-21.3 7l-72.9-73.4c23.6-25.5 37.5-58.8 38.8-94zm-261.5-86.7c0 .1 0 .1 0 0-25.4 25.9-37.3 62-32.4 97.9.4 2.7-1.5 5.3-4.2 5.7-.2 0-.5 0-.7 0-2.5 0-4.6-1.8-4.9-4.3-5.4-38.9 7.6-78.2 35.1-106.2 1.9-2 5.1-2 7.1-.1s1.9 5.1 0 7zm23.1-18s-.1 0-.1.1c-1.7 1-3.4 2.1-5.1 3.2-2.3 1.5-5.4.9-6.9-1.4s-.9-5.4 1.4-6.9c1.8-1.2 3.6-2.4 5.5-3.5 2.4-1.4 5.4-.7 6.9 1.6 1.4 2.4.6 5.4-1.7 6.9z"/></g></svg>