<svg id="Capa_1" enable-background="new 0 0 512 512" height="512" viewBox="0 0 512 512" width="512" xmlns="http://www.w3.org/2000/svg"><g><path d="m165 331.5c15.715 0 28.5-12.785 28.5-28.5v-65.279c44.626-12.298 77.5-53.24 77.5-101.721v-14.5h-211v14.5c0 48.119 32.383 88.816 76.5 101.446v65.554c0 15.715 12.785 28.5 28.5 28.5z"/><path d="m224.308 241.5h-.808v61.5c0 32.257-26.243 58.5-58.5 58.5s-58.5-26.243-58.5-58.5v-61.5h-11.5c-52.383 0-95 42.617-95 95v160c0 8.284 6.716 15 15 15h300c8.284 0 15-6.716 15-15v-149.308c0-58.278-47.413-105.692-105.692-105.692z"/><path d="m341 91.5h111v-5c0-30.327-24.673-55-55-55h-41c-15.75 0-29.964 6.665-40 17.31v17.69c0 13.785 11.215 25 25 25z"/><path d="m361.05 209.869v46.681c0 8.244 6.707 14.95 14.95 14.95s14.95-6.707 14.95-14.95v-46.427c14.489-2.791 27.832-9.777 38.582-20.387 14.489-14.299 22.468-33.383 22.468-53.736v-14.5h-111c-15.75 0-29.964-6.665-40-17.31v30.907c0 36.584 25.865 67.495 60.05 74.772z"/><path d="m331.05 211.643c-16.684.862-32.245 6.037-45.579 14.446 18.145 9.202 33.95 22.368 46.285 38.343-.455-2.561-.706-5.192-.706-7.882z"/><path d="m420.95 211.588v44.961c0 24.786-20.165 44.95-44.95 44.95-10.502 0-20.167-3.63-27.827-9.688 7.596 16.92 11.827 35.665 11.827 55.381v104.308h137c8.284 0 15-6.716 15-15v-130c0-51.06-40.492-92.833-91.05-94.912z"/><path d="m271 91.5v-26c0-35.841-29.159-65-65-65h-161c-8.284 0-15 6.716-15 15v41c0 12.881 3.771 24.893 10.263 35z"/></g></svg>